<?xml version="1.0" encoding="utf-8"?>
<!-- Generator: Adobe Illustrator 24.1.1, SVG Export Plug-In . SVG Version: 6.00 Build 0)  -->
<svg version="1.1" id="Layer_1" xmlns="http://www.w3.org/2000/svg" xmlns:xlink="http://www.w3.org/1999/xlink" x="0px" y="0px"
	 viewBox="0 0 395 521" style="enable-background:new 0 0 395 521;" xml:space="preserve">
<style type="text/css">
	.st0{fill:none;stroke:#FFFFFF;stroke-width:15;stroke-miterlimit:10;}
	.st1{fill:#FFFFFF;stroke:#FFFFFF;stroke-width:3;stroke-miterlimit:10;}
</style>
<path class="st0" d="M349.2,508.3H133.3c-5.3,0-9.5-4.3-9.5-9.5v-46c0-5.3,4.3-9.5,9.5-9.5h215.9c5.3,0,9.5,4.3,9.5,9.5v46
	C358.7,504.1,354.4,508.3,349.2,508.3z"/>
<path class="st1" d="M105.5,407.1c14.2,10.2,25,18,28.1,36.3h19.3c-3.6-28.3-20.2-40.2-36.3-51.8c-14.5-10.4-29.5-21.1-38.5-45.8
	c-8.9-24.5-18.4-36.7-24.7-44.8c-1.6-2.1-3-3.9-4.1-5.5c-0.8-1.1,0.9-3.6,1.1-3.9c3.8-5.5,13.1-10.2,23.1-8
	c15.4,3.3,19.8,9.7,26.6,19.2c5.4,7.6,12,17,25.2,25v3.5c0,5.3,4.3,9.5,9.5,9.5s9.5-4.3,9.5-9.5V120.5c0-10.5,8-19.1,17.9-19.1
	c9.6,0,17.7,8.7,17.9,19.3l2.7,126.2c0.1,5.3,4.5,9.4,9.8,9.3c5.2-0.1,9.3-4.4,9.3-9.5c0-0.1,0-0.1,0-0.2l-2.7-126.1V70.9
	c0-10.5,8-19.1,17.9-19.1c9.7,0,17.8,8.6,17.9,19.2h0l2.1,175.8c0.1,5.3,4.4,9.5,9.7,9.4c5.2-0.1,9.4-4.3,9.4-9.5c0,0,0-0.1,0-0.1
	l-1.7-144.1c0-10.5,8-19.1,17.9-19.1c9.7,0,17.8,8.6,17.9,19.2l1.9,147.6c0.1,5.3,4.4,9.5,9.7,9.4c5.2-0.1,9.4-4.3,9.4-9.5
	c0,0,0-0.1,0-0.1l-1-78.5c0.4-9.7,7.7-17.6,16.5-17.6c8.7,0,16,7.9,16.2,17.6c0.6,27.1,1,38.5,1.3,46c0.4,11.7,0.6,15.3,0.6,57.2
	v80.5c0,15.2-4.3,30.7-8.8,47c-3.7,13.3-7.5,27-8.9,40.9h19.2c1.4-11.6,4.6-23.5,8.1-35.8c4.7-16.9,9.5-34.3,9.5-52.1v-80.5
	c0-42.3-0.1-45.9-0.6-57.9c-0.3-7.5-0.7-18.7-1.3-45.7c-0.4-20.3-16-36.3-35.3-36.3c-6.1,0-11.9,1.6-16.9,4.4l-0.5-37
	c-0.3-21-16.9-38.1-37-38.1c-6.7,0-12.9,1.8-18.3,5C253.3,49,237,32.7,217.3,32.7c-20.4,0-37,17.1-37,38.2v16.2
	c-5.3-3-11.4-4.8-17.9-4.8c-20.4,0-37,17.1-37,38.2v183.2c-3.8-3.8-6.7-7.8-9.6-12c-7.3-10.3-15.6-22-38.2-26.9
	c-19.2-4.1-35.7,5.4-42.9,15.9c-5.7,8.4-6.2,17.8-1.3,25.2c1.5,2.2,3.2,4.4,4.9,6.7c5.9,7.6,14,17.9,21.9,39.6
	C71.2,382.5,90.2,396.1,105.5,407.1z"/>
</svg>
