<?xml version="1.0" encoding="utf-8"?>
<!-- Generator: Adobe Illustrator 24.1.1, SVG Export Plug-In . SVG Version: 6.00 Build 0)  -->
<svg version="1.1" id="Layer_1" xmlns="http://www.w3.org/2000/svg" xmlns:xlink="http://www.w3.org/1999/xlink" x="0px" y="0px"
	 viewBox="0 0 395 521" style="enable-background:new 0 0 395 521;" xml:space="preserve">
<style type="text/css">
	.st0{fill:none;stroke:#FFFFFF;stroke-width:15;stroke-miterlimit:10;}
	.st1{fill:#FFFFFF;stroke:#FFFFFF;stroke-width:6;stroke-miterlimit:10;}
</style>
<path class="st0" d="M292.1,497.5H76.2c-5.3,0-9.5-4.3-9.5-9.5v-46c0-5.3,4.3-9.5,9.5-9.5h215.9c5.3,0,9.5,4.3,9.5,9.5v46
	C301.6,493.3,297.3,497.5,292.1,497.5z"/>
<path class="st1" d="M53.4,247.4v79.8c0,18.5,5.1,36.9,10,54.6c3.9,14.1,7.6,27.5,8.9,40.8h14.3c-1.4-15.1-5.5-30.1-9.5-44.6
	c-4.9-17.6-9.5-34.2-9.5-50.8V300c6.1,4.7,13.8,7.6,22.2,7.6c7.8,0,15.2-2.8,21.1-8c4.5,14.5,18.4,24.9,34.8,24.9
	c9.1,0,17.6-3.7,24.1-10.4c1.1-1.1,2-2.3,2.9-3.5c1.1,1.5,2.3,3,3.7,4.3c4.5,4.4,9.8,7.5,15.6,9.1c-11.3,15.6-17.1,34-17.1,47.9
	c0,3.9,3.2,7.1,7.1,7.1s7.1-3.2,7.1-7.1c0-20.5,16.5-54.3,46.3-63.7c7.2,3.2,14.1,3.8,20.8,4.4c3.8,0.4,7.8,0.7,11.9,1.6
	c3.8,0.8,7.6-1.6,8.4-5.5c0.8-3.8-1.6-7.6-5.5-8.4c-4.9-1.1-9.3-1.5-13.6-1.9c-11-1-19-1.8-29.3-13.2c-7-7.7-7.6-18.4-4.6-24.6
	c0.7-1.5,2.2-3.9,4.5-3.8c1.8,0.1,4,0.4,6.5,0.8c9.4,1.3,23.6,3.3,47.4-0.9c2.2-0.4,4.3-0.8,6.3-1.2c17.1-3.4,25-4.9,39.9,20.8
	c0.5,1,1.1,2,1.7,3.1c5.3,9.8,12.5,23.3,6.9,38.2v0c-9.9,26.2-21.9,38.4-32.5,49.2c-13.3,13.5-24.9,25.3-26.9,56h14.3
	c1.9-24.7,10.9-33.9,22.8-46c11-11.2,24.7-25.1,35.7-54.1c7.9-21-1.8-39.1-7.7-49.9h0c-0.6-1.1-1.1-2.1-1.6-3.1
	c-0.1-0.1-0.1-0.2-0.2-0.3c-9.1-15.7-17.5-24.4-27.3-28c-6-2.2-11.9-2.3-17.9-1.5l0.6-36.3c0.2-9.7-3.7-19.2-10.6-26.1
	c-6.6-6.6-15.3-10.1-24.3-9.9c-8.4,0.2-16.1,3.1-22.2,7.8c-1.6-6.9-5.1-13.4-10.2-18.4c-6.8-6.7-15.6-10.3-24.9-10.1
	c-19.5,0.5-35.1,15-36.6,33.4c-6.7-7.4-16.5-12.1-27.5-12.1c-9.1,0-17.6,3.7-24.1,10.4c-5.1,5.4-8.5,12.2-9.6,19.5
	c-5.8-4-12.9-6.4-20.6-6.4c-8.8,0-17.1,3.6-23.4,10.1c-6.5,6.8-10,16.1-9.6,25.5L53.4,247.4z M239.7,202.4
	C239.7,202.4,239.7,202.4,239.7,202.4C239.7,202.4,239.7,202.4,239.7,202.4c0.2-11.4,9.8-20.5,21.8-20.7c5.2-0.1,10.1,1.9,14,5.7
	c4.2,4.2,6.5,9.9,6.4,15.8l-0.6,39.1c-0.6,0.1-1.1,0.2-1.7,0.3c-20,3.5-32,2.3-40.9,1.1L239.7,202.4z M181.4,182.8
	c0.2-11.9,10.3-21.5,22.9-21.8c5.4-0.1,10.6,2,14.6,6c4.4,4.4,6.9,10.4,6.9,16.7l-0.2,18.4l-1,40.7c-5.7,1.1-10.7,5.2-13.7,11.5
	c-4.9,10.3-4.9,27.3,6.9,40.3c1.2,1.4,2.5,2.6,3.7,3.8c-6.6,3.3-12.6,7.5-17.8,12.4h-2.2c-0.1,0-0.1,0-0.2,0
	c-5.4,0.1-10.7-2-14.7-6.1c-4-4-6.4-9.5-6.7-15.1c0-0.5,0-1,0-1.5C180,273.2,181.1,197.7,181.4,182.8z M126,188.5
	c3.7-3.9,8.6-6.1,13.8-6.1c11.9,0,21.7,8.8,22.2,20.1l3.6,85.8c0,0.5,0,0.9,0,1.4c-0.1,5.3-2.3,10.5-6,14.4
	c-3.7,3.9-8.6,6.1-13.8,6.1c-11.9,0-21.7-8.8-22.2-20.1l-2.8-65.7l-0.8-20.2C119.7,198.4,121.9,192.7,126,188.5z M72.4,211.7
	c3.6-3.7,8.2-5.8,13.1-5.8c11.4,0,20.6,8.4,21.1,19.1v0l2,47.5v0v0l0,0c0.2,5.5-1.9,11-5.7,15c-3.6,3.7-8.2,5.7-13.1,5.7
	c-11.4,0-20.6-8.4-21.1-19.1l-2-47.5C66.5,221.2,68.6,215.7,72.4,211.7z"/>
</svg>
