<?xml version="1.0" encoding="utf-8"?>
<!-- Generator: Adobe Illustrator 24.1.1, SVG Export Plug-In . SVG Version: 6.00 Build 0)  -->
<svg version="1.1" id="Layer_1" xmlns="http://www.w3.org/2000/svg" xmlns:xlink="http://www.w3.org/1999/xlink" x="0px" y="0px"
	 viewBox="0 0 395 521" style="enable-background:new 0 0 395 521;" xml:space="preserve">
<style type="text/css">
	.st0{fill:none;stroke:#FFFFFF;stroke-width:15;stroke-miterlimit:10;}
	.st1{fill:#FFFFFF;}
</style>
<path class="st0" d="M292.8,504.8H76.9c-5.3,0-9.5-4.3-9.5-9.5v-46c0-5.3,4.3-9.5,9.5-9.5h215.9c5.3,0,9.5,4.3,9.5,9.5v46
	C302.3,500.6,298,504.8,292.8,504.8z"/>
<path class="st1" d="M346.2,32.3c-10-3.5-20.7-2.8-30.2,2c-9.5,4.8-16.4,12.9-19.6,23l-24.6,78.1l7-82.2c0.9-10.4-2.4-20.5-9.2-28.4
	c-6.8-7.9-16.4-12.5-26.8-13.1c-20.8-1.2-38.5,14.2-40.3,35L188.4,212H187l-5.6-23.5c-2.5-10.3-8.8-19.1-17.9-24.6
	c-9.1-5.5-19.7-7.2-30.1-4.8c-10.3,2.5-19.1,8.8-24.6,17.9c-0.4,0.7-0.8,1.3-1.1,2c-0.6-0.4-1.3-0.9-1.9-1.3
	c-9.1-5.5-19.7-7.2-30.1-4.8c-10.3,2.5-19.1,8.8-24.6,17.9c-3.9,6.4-5.9,13.7-5.9,21l-0.8,119.7c0,43.6,20.1,82.6,51.5,108.2h37.5
	c-40.6-19.1-68.8-60.4-68.8-108.2l0.2-39c6.9,12.9,20.4,21.2,35.1,21.2c3.1,0,6.2-0.4,9.3-1.1c11.5-2.8,20.6-10.3,25.7-19.9
	c3.2,2.3,6.8,4.1,10.7,5.3c0.5,1.5,1.1,3,1.8,4.5c4.9,10.2,13.4,18,24.1,21.8l59.8,21.3l20,40.6c1.8,3.6,5.3,5.6,9,5.6
	c1.5,0,3-0.3,4.5-1c5-2.5,7-8.5,4.6-13.5l-21.8-44.2c-1.2-2.3-3.2-4.2-5.7-5l-63.7-22.7c-5.6-2-10.1-6.1-12.7-11.5
	c-2.6-5.4-2.9-11.4-0.9-17.1c2-5.6,6.1-10.1,11.5-12.7c5.4-2.6,11.4-2.9,17.1-0.9l110.3,39.3v29c0,47.8-28.2,89.1-68.8,108.2h37.5
	c31.4-25.6,51.5-64.6,51.5-108.2v-78.3L371,79.2C376.3,59.6,365.4,39,346.2,32.3z M104.5,293.2c-10.5,2.5-21.1-4-23.7-14.5l-15-62.4
	c-1.2-5.1-0.4-10.4,2.3-14.8c2.7-4.5,7-7.6,12.1-8.8c1.5-0.4,3.1-0.6,4.6-0.6c3.6,0,7.1,1,10.2,2.9c4.5,2.7,7.6,7,8.8,12.1
	c0,0,0,0,0,0l15,62.4C121.6,280,115.1,290.6,104.5,293.2z M167.7,246c-10.2,4.9-18,13.4-21.8,24.1c-0.5,1.5-1,3.1-1.4,4.6
	c-2.9-2.6-5-6-5.9-9.9l-15-62.4c-1.2-5.1-0.4-10.4,2.3-14.8c2.7-4.5,7-7.6,12.1-8.8c5.1-1.2,10.4-0.4,14.8,2.3
	c4.5,2.7,7.6,7,8.8,12.1l12.1,50.4C171.8,244.2,169.7,245,167.7,246z M351.5,73.9L304,249.3c-0.2,0.9-0.3,1.7-0.3,2.6v29.3
	l-103.5-36.9c-1.9-0.7-3.8-1.2-5.8-1.6l-2.5-10.6h5.8c5.2,0,9.6-4,10-9.2l14.9-174.5c0.8-9.8,9.2-17.1,19.1-16.6
	c4.9,0.3,9.4,2.5,12.7,6.2c3.2,3.7,4.8,8.5,4.4,13.4L244,224.3c-0.4,5.1,3,9.7,8.1,10.7c5,1,10-2,11.6-6.9l52-164.8
	c1.5-4.9,4.9-8.8,9.4-11.1c4.6-2.3,9.7-2.6,14.5-0.9C348.8,54.5,354.1,64.5,351.5,73.9z"/>
</svg>
